<?xml version="1.0" encoding="UTF-8" standalone="no"?>
<!-- Created with Inkscape (http://www.inkscape.org/) -->

<svg
   width="130.66132mm"
   height="133.03552mm"
   viewBox="0 0 130.66132 133.03552"
   version="1.1"
   id="svg1"
   xml:space="preserve"
   xmlns:inkscape="http://www.inkscape.org/namespaces/inkscape"
   xmlns:sodipodi="http://sodipodi.sourceforge.net/DTD/sodipodi-0.dtd"
   xmlns="http://www.w3.org/2000/svg"
   xmlns:svg="http://www.w3.org/2000/svg"><sodipodi:namedview
     id="namedview1"
     pagecolor="#ffffff"
     bordercolor="#000000"
     borderopacity="0.25"
     inkscape:showpageshadow="2"
     inkscape:pageopacity="0.0"
     inkscape:pagecheckerboard="0"
     inkscape:deskcolor="#d1d1d1"
     inkscape:document-units="mm"
     showguides="true"><sodipodi:guide
       position="46.077308,230.35565"
       orientation="0,-1"
       id="guide1"
       inkscape:locked="false" /><sodipodi:guide
       position="65.573471,268.84158"
       orientation="1,0"
       id="guide2"
       inkscape:locked="false" /></sodipodi:namedview><defs
     id="defs1"><linearGradient
       id="SVGID_1_"
       gradientUnits="userSpaceOnUse"
       x1="127.2908"
       y1="420.2988"
       x2="384.707"
       y2="91.707603">&#10;		<stop
   offset="0"
   style="stop-color:#F6AF1B"
   id="stop1" />&#10;		<stop
   offset="1"
   style="stop-color:#E75924"
   id="stop2" />&#10;	</linearGradient></defs><g
     inkscape:label="Layer 1"
     inkscape:groupmode="layer"
     id="layer1"
     transform="translate(153.9392,-81.982236)"><g
       id="g2"><rect
         style="fill:#ffffff;stroke-width:1.94554"
         id="rect1"
         width="130.66132"
         height="133.03552"
         x="-153.93919"
         y="81.982239"
         rx="44.614426"
         ry="45.447731" /><g
         id="g3"
         transform="matrix(0.26458333,0,0,0.26458333,-156.34123,80.76799)">&#10;	<linearGradient
   id="linearGradient4"
   gradientUnits="userSpaceOnUse"
   x1="127.2908"
   y1="420.2988"
   x2="384.707"
   y2="91.707603">&#10;		<stop
   offset="0"
   style="stop-color:#F6AF1B"
   id="stop3" />&#10;		<stop
   offset="1"
   style="stop-color:#E75924"
   id="stop4" />&#10;	</linearGradient>&#10;	<path
   class="st0"
   d="m 306.79,53.62 c -0.19,-0.05 -0.38,-0.1 -0.57,-0.15 -16.87,-4.18 -33.74,-6.18 -50.37,-6.18 v 0 h -0.08 v 0 c -93.61,0.04 -178.75,63.52 -202.3,158.48 -27.73,111.86 40.46,225.02 152.3,252.75 16.87,4.18 33.75,6.18 50.39,6.18 93.64,0 178.81,-63.5 202.36,-158.48 C 486.21,194.6 418.34,81.62 306.79,53.62 Z m 135.35,248.55 c -21.27,85.76 -97.75,145.66 -185.98,145.66 -15.52,0 -31.11,-1.91 -46.32,-5.69 C 160.12,429.81 118.18,398.86 91.74,354.98 65.3,311.1 57.53,259.56 69.86,209.84 91.12,124.1 167.69,64.21 255.9,64.17 c 15.49,0 31.06,1.92 46.39,5.72 l 0.19,0.05 0.2,0.05 c 102.29,25.67 164.85,129.82 139.46,232.18 z"
   id="path2"
   style="fill:url(#SVGID_1_)" />&#10;	<path
   class="st8"
   d="m 299.5,228.06 c -5.99,23.97 -42.54,11.68 -54.41,8.75 l 10.48,-41.94 c 11.68,2.88 49.92,8.39 43.74,33.19 z m -6.53,67.78 c -6.47,26.12 -50.45,11.99 -64.71,8.44 l 11.56,-46.32 c 14.26,3.6 59.92,10.61 53.15,37.88 z m 47.93,-67.42 c 3.78,-25.53 -15.64,-39.25 -41.94,-48.35 l 8.63,-34.57 -21.27,-5.27 -8.39,33.68 c -5.51,-1.38 -11.2,-2.7 -16.84,-3.96 l 8.39,-34.04 -21.03,-5.27 -8.63,34.57 -13.42,-2.99 -29.06,-7.25 -5.57,22.47 c 0,0 14.52,3.55 15.28,3.84 4.7,0.95 10.29,6.01 9.83,11.99 l -23.61,94.68 c -1.29,4.04 -5.6,6.26 -9.64,4.97 v 0 c -0.45,-0.12 -15.34,-3.78 -15.34,-3.78 l -10.43,23.97 27.38,6.77 14.98,3.9 -8.69,34.93 21.03,5.27 8.63,-34.57 c 5.67,1.56 11.25,2.99 16.72,4.31 l -8.51,34.7 21.03,5.21 8.69,-34.87 c 35.95,6.78 62.86,4.07 74.24,-28.4 9.17,-26.13 -0.48,-41.17 -19.35,-51 13.78,-3.18 23.97,-11.99 26.9,-30.92 z"
   id="path3"
   style="fill:#1d1d1b" />&#10;</g></g></g><style
     type="text/css"
     id="style1">&#10;	.st0{fill:url(#SVGID_1_);}&#10;	.st1{fill:#010101;}&#10;	.st2{fill:#EC8623;}&#10;	.st3{fill:#FFFFFF;}&#10;	.st4{fill:url(#SVGID_2_);}&#10;	.st5{fill:url(#SVGID_3_);}&#10;	.st6{fill:url(#SVGID_4_);}&#10;	.st7{fill:url(#SVGID_5_);}&#10;	.st8{fill:#1D1D1B;}&#10;	.st9{fill:url(#SVGID_6_);}&#10;</style></svg>
